<svg width="500" height="500" viewBox="0 0 500 500" fill="none" xmlns="http://www.w3.org/2000/svg">
<path d="M120.752 60H132.255L138.006 64.1667V110H128.804V87.5H124.202V110H115V64.1667L120.752 60ZM124.202 65.8333V82.5H128.804V65.8333H124.202Z" fill="white"/>
<path d="M142.634 60H162.88V65.8333H151.837V82.5H158.279V87.5H151.837V104.167H162.88V110H142.634V60Z" fill="white"/>
<path d="M166.359 60H183.614L189.366 64.1667V110H180.163V65.8333H175.562V110H166.359V60Z" fill="white"/>
<path d="M199.745 60H211.248L217 64.1667V105.833L211.248 110H199.745L193.994 105.833V64.1667L199.745 60ZM203.196 65.8333V104.167H207.798V65.8333H203.196Z" fill="white"/>
<path fill-rule="evenodd" clip-rule="evenodd" d="M84.5161 60.259C84.7463 59.9137 85.2539 59.9136 85.4841 60.259L86.1967 61.3279C87.7432 63.6479 90.2622 65.1268 92.8356 66.2C95.4051 67.2716 98.156 67.9625 100.886 67.4165L102.152 67.1631C102.559 67.0819 102.918 67.4408 102.837 67.8477L102.586 69.0996C102.039 71.8354 102.732 74.5925 103.807 77.1673C104.881 79.742 106.361 82.2624 108.682 83.81L109.741 84.5161C110.086 84.7463 110.086 85.2538 109.741 85.4841L108.684 86.1885C106.362 87.736 104.882 90.2571 103.807 92.8324C102.732 95.4066 102.039 98.1628 102.586 100.898L102.837 102.152C102.918 102.559 102.559 102.918 102.152 102.837L100.886 102.584C98.1561 102.037 95.4051 102.728 92.8356 103.799C90.2619 104.873 87.7426 106.352 86.1963 108.672L85.4841 109.741C85.2539 110.086 84.7464 110.086 84.5161 109.741L83.7925 108.656C82.2506 106.343 79.7406 104.867 77.1755 103.796C74.6088 102.724 71.8599 102.034 69.1325 102.58L67.8477 102.837C67.4408 102.918 67.082 102.559 67.1632 102.152L67.4231 100.853C67.9669 98.1315 67.2795 95.3893 66.211 92.8283C65.1413 90.2644 63.6662 87.7555 61.3547 86.2145L60.259 85.4841C59.9136 85.2538 59.9137 84.7463 60.259 84.5161L61.3559 83.7844C63.6668 82.2432 65.1412 79.7349 66.2106 77.1714C67.2792 74.6099 67.9668 71.8671 67.4226 69.1455L67.1632 67.8477C67.0818 67.4407 67.4407 67.0819 67.8477 67.1631L69.1333 67.4202C71.8603 67.9655 74.6083 67.275 77.1747 66.2037C79.7399 65.1328 82.25 63.6572 83.7921 61.3445L84.5161 60.259ZM75.7548 82.5166L78.6906 85.0001L75.7548 87.4839L77.3691 89.3915L82.5589 85.0005L77.3691 80.6091L75.7548 82.5166ZM87.44 85.0005L92.6298 89.3915L94.2441 87.4839L91.3084 85.0001L94.2441 82.5166L92.6298 80.6091L87.44 85.0005Z" fill="#FF6600"/>
</svg>
