<svg width="330" height="330" viewBox="0 0 330 330" fill="none" xmlns="http://www.w3.org/2000/svg">
<path d="M330 165C330 177.528 326.333 188.528 319 198C311.972 207.472 302.958 213.889 291.958 217.25C297.153 227.639 298.986 238.792 297.458 250.708C295.931 262.319 290.736 272.556 281.875 281.417C276.375 286.917 270.264 291.042 263.542 293.792C256.819 296.236 249.944 297.458 242.917 297.458C233.75 297.458 225.347 295.472 217.708 291.5C214.042 302.806 207.472 312.125 198 319.458C188.528 326.486 177.528 330 165 330C152.778 330 141.778 326.486 132 319.458C122.528 312.125 116.111 302.958 112.75 291.958C104.806 295.931 96.4028 297.917 87.5417 297.917C80.5139 297.917 73.6389 296.694 66.9167 294.25C60.1944 291.5 54.0833 287.375 48.5833 281.875C39.7222 273.014 34.5278 262.778 33 251.167C31.4722 239.25 33.3056 228.097 38.5 217.708C27.1944 214.042 17.875 207.472 10.5417 198C3.51389 188.528 0 177.528 0 165C0 152.472 3.51389 141.472 10.5417 132C17.875 122.528 27.1944 115.958 38.5 112.292C33 101.903 31.0139 90.9028 32.5417 79.2917C34.375 67.375 39.7222 57.1389 48.5833 48.5833C59.2778 37.5833 72.1111 32.0833 87.0833 32.0833C95.9444 32.0833 104.347 34.2222 112.292 38.5C115.958 27.1944 122.528 18.0278 132 11C141.472 3.66666 152.472 0 165 0C177.528 0 188.528 3.66666 198 11C207.472 18.0278 213.889 27.1944 217.25 38.5C224.889 34.5278 233.444 32.5417 242.917 32.5417C249.944 32.5417 256.819 33.9167 263.542 36.6667C270.264 39.1111 276.222 43.0833 281.417 48.5833C290.278 57.4444 295.472 67.8333 297 79.75C298.528 91.3611 296.694 102.361 291.5 112.75C302.806 116.111 311.972 122.528 319 132C326.333 141.472 330 152.472 330 165ZM203.958 203.958C207.319 200.597 210.681 197.847 214.042 195.708C217.708 193.569 221.681 191.736 225.958 190.208C221.986 182.264 220 173.861 220 165C220 156.444 221.986 147.889 225.958 139.333C217.708 136.583 210.375 132.153 203.958 126.042C197.542 119.625 192.958 112.139 190.208 103.583C182.264 107.556 173.861 109.542 165 109.542C156.444 109.542 147.889 107.556 139.333 103.583C136.889 112.139 132.306 119.625 125.583 126.042C119.167 132.153 111.833 136.583 103.583 139.333C107.861 146.972 110 155.375 110 164.542C110 173.708 107.861 182.264 103.583 190.208C121.306 196.319 133.222 208.236 139.333 225.958C147.889 221.986 156.444 220 165 220C173.861 220 182.264 221.986 190.208 225.958C191.736 221.681 193.569 217.861 195.708 214.5C197.847 210.833 200.597 207.319 203.958 203.958Z" fill="white"/>
</svg>
