<svg width="500" height="160" viewBox="0 0 500 160" fill="none" xmlns="http://www.w3.org/2000/svg">
<path d="M0 0H41.8118L55.7491 13.3333V146.667L41.8118 160H0V0ZM22.2997 18.6667V141.333H33.4495V18.6667H22.2997Z" fill="white"/>
<path d="M66.9643 0H116.024V18.6667H89.2639V72H104.874V88H89.2639V141.333H116.024V160H66.9643V0Z" fill="white"/>
<path d="M124.456 106.667V88H143.968V106.667H124.456ZM124.456 72V53.3333H143.968V72H124.456Z" fill="white"/>
<path d="M152.374 0H201.433V18.6667H188.053V160H165.753V18.6667H152.374V0Z" fill="white"/>
<path d="M243.325 0H265.625V160H243.325V88H232.176V160H209.876V0H232.176V72H243.325V0Z" fill="white"/>
<path d="M276.84 160V0H299.14V160H276.84Z" fill="white"/>
<path d="M310.322 0H352.134L366.071 13.3333V160H343.772V18.6667H332.622V160H310.322V0Z" fill="white"/>
<path d="M391.224 0H419.098L433.036 13.3333V72H410.736V18.6667H399.586V141.333H410.736V104H405.161V88H433.036V146.667L419.098 160H391.224L377.287 146.667V13.3333L391.224 0Z" fill="white"/>
<path d="M458.188 0H486.063L500 13.3333V56H477.7V18.6667H466.551V72H491.638L500 80V146.667L486.063 160H458.188L444.251 146.667V104H466.551V141.333H477.7V88H452.613L444.251 80V13.3333L458.188 0Z" fill="white"/>
</svg>
