<svg width="315" height="98" viewBox="0 0 315 98" fill="none" xmlns="http://www.w3.org/2000/svg">
<g filter="url(#filter0_d_182_43)">
<path d="M17.2266 39H3.26953V13.793H7.45312V35.4668H17.2266V39ZM28.4062 39.4219C25.6289 39.4219 23.4082 38.584 21.7441 36.9082C20.0918 35.2207 19.2656 32.9883 19.2656 30.2109C19.2656 27.1875 20.127 24.8262 21.8496 23.127C23.584 21.4277 25.916 20.5781 28.8457 20.5781C31.6582 20.5781 33.8496 21.4043 35.4199 23.0566C36.9902 24.709 37.7754 27 37.7754 29.9297C37.7754 32.8008 36.9258 35.1035 35.2266 36.8379C33.5391 38.5605 31.2656 39.4219 28.4062 39.4219ZM28.5996 23.8301C27.0059 23.8301 25.7461 24.3867 24.8203 25.5C23.8945 26.6133 23.4316 28.1484 23.4316 30.1055C23.4316 31.9922 23.9004 33.4805 24.8379 34.5703C25.7754 35.6484 27.0293 36.1875 28.5996 36.1875C30.2051 36.1875 31.4355 35.6543 32.291 34.5879C33.1582 33.5215 33.5918 32.0039 33.5918 30.0352C33.5918 28.0547 33.1582 26.5254 32.291 25.4473C31.4355 24.3691 30.2051 23.8301 28.5996 23.8301ZM55.3359 39H51.3809V36.1875H51.3105C50.0684 38.3438 48.2461 39.4219 45.8438 39.4219C44.0742 39.4219 42.6855 38.9414 41.6777 37.9805C40.6816 37.0195 40.1836 35.748 40.1836 34.166C40.1836 30.7676 42.1406 28.7871 46.0547 28.2246L51.3984 27.4688C51.3984 24.9023 50.1797 23.6191 47.7422 23.6191C45.5977 23.6191 43.6641 24.3574 41.9414 25.834V22.2656C43.8398 21.1406 46.0312 20.5781 48.5156 20.5781C53.0625 20.5781 55.3359 22.8164 55.3359 27.293V39ZM51.3984 30.1582L47.6191 30.6855C46.4473 30.8379 45.5625 31.125 44.9648 31.5469C44.3789 31.957 44.0859 32.6836 44.0859 33.7266C44.0859 34.4883 44.3555 35.1152 44.8945 35.6074C45.4453 36.0879 46.1777 36.3281 47.0918 36.3281C48.334 36.3281 49.3594 35.8945 50.168 35.0273C50.9883 34.1484 51.3984 33.0469 51.3984 31.7227V30.1582ZM76.6934 39H72.6152V35.9414H72.5449C71.2324 38.2617 69.2109 39.4219 66.4805 39.4219C64.2656 39.4219 62.4902 38.6191 61.1543 37.0137C59.8301 35.3965 59.168 33.1992 59.168 30.4219C59.168 27.4453 59.9004 25.0605 61.3652 23.2676C62.8418 21.4746 64.8047 20.5781 67.2539 20.5781C69.6797 20.5781 71.4434 21.5508 72.5449 23.4961H72.6152V12.3516H76.6934V39ZM72.668 30.7734V28.418C72.668 27.1406 72.252 26.0566 71.4199 25.166C70.5879 24.2754 69.5273 23.8301 68.2383 23.8301C66.7148 23.8301 65.5137 24.3984 64.6348 25.5352C63.7676 26.6719 63.334 28.248 63.334 30.2637C63.334 32.0918 63.75 33.5391 64.582 34.6055C65.4258 35.6602 66.5566 36.1875 67.9746 36.1875C69.3691 36.1875 70.5 35.6777 71.3672 34.6582C72.2344 33.627 72.668 32.332 72.668 30.7734ZM84.0762 17.2207C83.4082 17.2207 82.834 17.0039 82.3535 16.5703C81.8848 16.1367 81.6504 15.5859 81.6504 14.918C81.6504 14.25 81.8848 13.6934 82.3535 13.248C82.834 12.8027 83.4082 12.5801 84.0762 12.5801C84.7676 12.5801 85.3535 12.8027 85.834 13.248C86.3145 13.6934 86.5547 14.25 86.5547 14.918C86.5547 15.5508 86.3145 16.0957 85.834 16.5527C85.3535 16.998 84.7676 17.2207 84.0762 17.2207ZM86.0977 39H82.0195V21H86.0977V39ZM107.473 39H103.395V28.8574C103.395 25.4941 102.205 23.8125 99.8262 23.8125C98.584 23.8125 97.5586 24.2812 96.75 25.2188C95.9414 26.1445 95.5371 27.3164 95.5371 28.7344V39H91.4414V21H95.5371V23.9883H95.6074C96.9551 21.7148 98.9004 20.5781 101.443 20.5781C103.4 20.5781 104.895 21.2168 105.926 22.4941C106.957 23.7598 107.473 25.5938 107.473 27.9961V39ZM128.848 37.5586C128.848 44.168 125.525 47.4727 118.881 47.4727C116.537 47.4727 114.492 47.0801 112.746 46.2949V42.5684C114.715 43.6934 116.584 44.2559 118.354 44.2559C122.631 44.2559 124.77 42.1523 124.77 37.9453V35.9766H124.699C123.352 38.2734 121.324 39.4219 118.617 39.4219C116.426 39.4219 114.656 38.625 113.309 37.0312C111.973 35.4258 111.305 33.2754 111.305 30.5801C111.305 27.5215 112.025 25.0898 113.467 23.2852C114.908 21.4805 116.889 20.5781 119.408 20.5781C121.787 20.5781 123.551 21.5508 124.699 23.4961H124.77V21H128.848V37.5586ZM124.805 30.7559V28.418C124.805 27.1523 124.383 26.0742 123.539 25.1836C122.707 24.2812 121.664 23.8301 120.41 23.8301C118.863 23.8301 117.65 24.4043 116.771 25.5527C115.904 26.6895 115.471 28.2832 115.471 30.334C115.471 32.1035 115.887 33.5215 116.719 34.5879C117.562 35.6426 118.676 36.1699 120.059 36.1699C121.465 36.1699 122.607 35.666 123.486 34.6582C124.365 33.6387 124.805 32.3379 124.805 30.7559ZM154.512 24.8848C154.02 24.498 153.311 24.3047 152.385 24.3047C151.178 24.3047 150.17 24.8496 149.361 25.9395C148.553 27.0293 148.148 28.5117 148.148 30.3867V39H144.07V21H148.148V24.709H148.219C148.617 23.4434 149.227 22.459 150.047 21.7559C150.879 21.041 151.805 20.6836 152.824 20.6836C153.562 20.6836 154.125 20.7949 154.512 21.0176V24.8848ZM172.318 31.1074H160.049C160.096 32.7715 160.605 34.0547 161.578 34.957C162.562 35.8594 163.91 36.3105 165.621 36.3105C167.543 36.3105 169.307 35.7363 170.912 34.5879V37.875C169.271 38.9062 167.104 39.4219 164.408 39.4219C161.76 39.4219 159.68 38.6074 158.168 36.9785C156.668 35.3379 155.918 33.0352 155.918 30.0703C155.918 27.2695 156.744 24.9902 158.396 23.2324C160.061 21.4629 162.123 20.5781 164.584 20.5781C167.045 20.5781 168.949 21.3691 170.297 22.9512C171.645 24.5332 172.318 26.7305 172.318 29.543V31.1074ZM168.381 28.2246C168.369 26.7598 168.023 25.623 167.344 24.8145C166.664 23.9941 165.727 23.584 164.531 23.584C163.359 23.584 162.363 24.0117 161.543 24.8672C160.734 25.7227 160.236 26.8418 160.049 28.2246H168.381ZM175.078 38.4375V34.6582C176.602 35.8184 178.283 36.3984 180.123 36.3984C182.584 36.3984 183.814 35.6719 183.814 34.2188C183.814 33.8086 183.709 33.4629 183.498 33.1816C183.287 32.8887 183 32.6309 182.637 32.4082C182.285 32.1855 181.863 31.9863 181.371 31.8105C180.891 31.6348 180.352 31.4355 179.754 31.2129C179.016 30.9199 178.348 30.6094 177.75 30.2812C177.164 29.9531 176.672 29.584 176.273 29.1738C175.887 28.752 175.594 28.2773 175.395 27.75C175.195 27.2227 175.096 26.6074 175.096 25.9043C175.096 25.0371 175.301 24.2754 175.711 23.6191C176.121 22.9512 176.672 22.3945 177.363 21.9492C178.055 21.4922 178.84 21.1523 179.719 20.9297C180.598 20.6953 181.506 20.5781 182.443 20.5781C184.107 20.5781 185.596 20.8301 186.908 21.334V24.9023C185.643 24.0352 184.189 23.6016 182.549 23.6016C182.033 23.6016 181.564 23.6543 181.143 23.7598C180.732 23.8652 180.381 24.0117 180.088 24.1992C179.795 24.3867 179.566 24.6152 179.402 24.8848C179.238 25.1426 179.156 25.4297 179.156 25.7461C179.156 26.1328 179.238 26.4609 179.402 26.7305C179.566 27 179.807 27.2402 180.123 27.4512C180.451 27.6504 180.838 27.8379 181.283 28.0137C181.74 28.1777 182.262 28.3594 182.848 28.5586C183.621 28.875 184.312 29.1973 184.922 29.5254C185.543 29.8535 186.07 30.2285 186.504 30.6504C186.938 31.0605 187.271 31.541 187.506 32.0918C187.74 32.6309 187.857 33.2754 187.857 34.0254C187.857 34.9395 187.646 35.7363 187.225 36.416C186.803 37.0957 186.24 37.6582 185.537 38.1035C184.834 38.5488 184.02 38.877 183.094 39.0879C182.18 39.3105 181.213 39.4219 180.193 39.4219C178.225 39.4219 176.52 39.0938 175.078 38.4375ZM199.723 39.4219C196.945 39.4219 194.725 38.584 193.061 36.9082C191.408 35.2207 190.582 32.9883 190.582 30.2109C190.582 27.1875 191.443 24.8262 193.166 23.127C194.9 21.4277 197.232 20.5781 200.162 20.5781C202.975 20.5781 205.166 21.4043 206.736 23.0566C208.307 24.709 209.092 27 209.092 29.9297C209.092 32.8008 208.242 35.1035 206.543 36.8379C204.855 38.5605 202.582 39.4219 199.723 39.4219ZM199.916 23.8301C198.322 23.8301 197.062 24.3867 196.137 25.5C195.211 26.6133 194.748 28.1484 194.748 30.1055C194.748 31.9922 195.217 33.4805 196.154 34.5703C197.092 35.6484 198.346 36.1875 199.916 36.1875C201.521 36.1875 202.752 35.6543 203.607 34.5879C204.475 33.5215 204.908 32.0039 204.908 30.0352C204.908 28.0547 204.475 26.5254 203.607 25.4473C202.752 24.3691 201.521 23.8301 199.916 23.8301ZM228.955 39H224.877V36.1523H224.807C223.623 38.332 221.783 39.4219 219.287 39.4219C215.033 39.4219 212.906 36.8672 212.906 31.7578V21H216.984V31.3359C216.984 34.5703 218.232 36.1875 220.729 36.1875C221.936 36.1875 222.926 35.7422 223.699 34.8516C224.484 33.9609 224.877 32.7949 224.877 31.3535V21H228.955V39ZM244.723 24.8848C244.23 24.498 243.521 24.3047 242.596 24.3047C241.389 24.3047 240.381 24.8496 239.572 25.9395C238.764 27.0293 238.359 28.5117 238.359 30.3867V39H234.281V21H238.359V24.709H238.43C238.828 23.4434 239.438 22.459 240.258 21.7559C241.09 21.041 242.016 20.6836 243.035 20.6836C243.773 20.6836 244.336 20.7949 244.723 21.0176V24.8848ZM260.174 38.1738C258.732 39.0059 257.027 39.4219 255.059 39.4219C252.387 39.4219 250.23 38.5898 248.59 36.9258C246.949 35.25 246.129 33.082 246.129 30.4219C246.129 27.457 247.008 25.0781 248.766 23.2852C250.535 21.4805 252.896 20.5781 255.85 20.5781C257.49 20.5781 258.938 20.8652 260.191 21.4395V25.2363C258.938 24.2988 257.602 23.8301 256.184 23.8301C254.461 23.8301 253.049 24.416 251.947 25.5879C250.846 26.748 250.295 28.2715 250.295 30.1582C250.295 32.0215 250.811 33.4922 251.842 34.5703C252.885 35.6484 254.279 36.1875 256.025 36.1875C257.49 36.1875 258.873 35.666 260.174 34.623V38.1738ZM279.475 31.1074H267.205C267.252 32.7715 267.762 34.0547 268.734 34.957C269.719 35.8594 271.066 36.3105 272.777 36.3105C274.699 36.3105 276.463 35.7363 278.068 34.5879V37.875C276.428 38.9062 274.26 39.4219 271.564 39.4219C268.916 39.4219 266.836 38.6074 265.324 36.9785C263.824 35.3379 263.074 33.0352 263.074 30.0703C263.074 27.2695 263.9 24.9902 265.553 23.2324C267.217 21.4629 269.279 20.5781 271.74 20.5781C274.201 20.5781 276.105 21.3691 277.453 22.9512C278.801 24.5332 279.475 26.7305 279.475 29.543V31.1074ZM275.537 28.2246C275.525 26.7598 275.18 25.623 274.5 24.8145C273.82 23.9941 272.883 23.584 271.688 23.584C270.516 23.584 269.52 24.0117 268.699 24.8672C267.891 25.7227 267.393 26.8418 267.205 28.2246H275.537ZM282.234 38.4375V34.6582C283.758 35.8184 285.439 36.3984 287.279 36.3984C289.74 36.3984 290.971 35.6719 290.971 34.2188C290.971 33.8086 290.865 33.4629 290.654 33.1816C290.443 32.8887 290.156 32.6309 289.793 32.4082C289.441 32.1855 289.02 31.9863 288.527 31.8105C288.047 31.6348 287.508 31.4355 286.91 31.2129C286.172 30.9199 285.504 30.6094 284.906 30.2812C284.32 29.9531 283.828 29.584 283.43 29.1738C283.043 28.752 282.75 28.2773 282.551 27.75C282.352 27.2227 282.252 26.6074 282.252 25.9043C282.252 25.0371 282.457 24.2754 282.867 23.6191C283.277 22.9512 283.828 22.3945 284.52 21.9492C285.211 21.4922 285.996 21.1523 286.875 20.9297C287.754 20.6953 288.662 20.5781 289.6 20.5781C291.264 20.5781 292.752 20.8301 294.064 21.334V24.9023C292.799 24.0352 291.346 23.6016 289.705 23.6016C289.189 23.6016 288.721 23.6543 288.299 23.7598C287.889 23.8652 287.537 24.0117 287.244 24.1992C286.951 24.3867 286.723 24.6152 286.559 24.8848C286.395 25.1426 286.312 25.4297 286.312 25.7461C286.312 26.1328 286.395 26.4609 286.559 26.7305C286.723 27 286.963 27.2402 287.279 27.4512C287.607 27.6504 287.994 27.8379 288.439 28.0137C288.896 28.1777 289.418 28.3594 290.004 28.5586C290.777 28.875 291.469 29.1973 292.078 29.5254C292.699 29.8535 293.227 30.2285 293.66 30.6504C294.094 31.0605 294.428 31.541 294.662 32.0918C294.896 32.6309 295.014 33.2754 295.014 34.0254C295.014 34.9395 294.803 35.7363 294.381 36.416C293.959 37.0957 293.396 37.6582 292.693 38.1035C291.99 38.5488 291.176 38.877 290.25 39.0879C289.336 39.3105 288.369 39.4219 287.35 39.4219C285.381 39.4219 283.676 39.0938 282.234 38.4375ZM302.713 34.7988L299.988 43.5703H296.93L298.863 34.7988H302.713ZM60.2227 84.3457H60.1523V95.2793H56.0742V69H60.1523V72.1641H60.2227C61.6172 69.7734 63.6562 68.5781 66.3398 68.5781C68.625 68.5781 70.4062 69.3809 71.6836 70.9863C72.9609 72.5918 73.5996 74.748 73.5996 77.4551C73.5996 80.4551 72.8789 82.8574 71.4375 84.6621C69.9961 86.4668 68.0273 87.3691 65.5312 87.3691C63.2344 87.3691 61.4648 86.3613 60.2227 84.3457ZM60.1172 77.2441V79.4766C60.1172 80.7891 60.5332 81.9023 61.3652 82.8164C62.209 83.7305 63.2754 84.1875 64.5645 84.1875C66.0762 84.1875 67.2598 83.6016 68.1152 82.4297C68.9824 81.2461 69.416 79.5996 69.416 77.4902C69.416 75.7207 69.0117 74.3379 68.2031 73.3418C67.4062 72.334 66.3223 71.8301 64.9512 71.8301C63.498 71.8301 62.3262 72.3457 61.4355 73.377C60.5566 74.4082 60.1172 75.6973 60.1172 77.2441ZM81.8613 87H77.7656V60.3516H81.8613V87ZM102.428 79.1074H90.1582C90.2051 80.7715 90.7148 82.0547 91.6875 82.957C92.6719 83.8594 94.0195 84.3105 95.7305 84.3105C97.6523 84.3105 99.416 83.7363 101.021 82.5879V85.875C99.3809 86.9062 97.2129 87.4219 94.5176 87.4219C91.8691 87.4219 89.7891 86.6074 88.2773 84.9785C86.7773 83.3379 86.0273 81.0352 86.0273 78.0703C86.0273 75.2695 86.8535 72.9902 88.5059 71.2324C90.1699 69.4629 92.2324 68.5781 94.6934 68.5781C97.1543 68.5781 99.0586 69.3691 100.406 70.9512C101.754 72.5332 102.428 74.7305 102.428 77.543V79.1074ZM98.4902 76.2246C98.4785 74.7598 98.1328 73.623 97.4531 72.8145C96.7734 71.9941 95.8359 71.584 94.6406 71.584C93.4688 71.584 92.4727 72.0117 91.6523 72.8672C90.8438 73.7227 90.3457 74.8418 90.1582 76.2246H98.4902ZM120.129 87H116.174V84.1875H116.104C114.861 86.3438 113.039 87.4219 110.637 87.4219C108.867 87.4219 107.479 86.9414 106.471 85.9805C105.475 85.0195 104.977 83.748 104.977 82.166C104.977 78.7676 106.934 76.7871 110.848 76.2246L116.191 75.4688C116.191 72.9023 114.973 71.6191 112.535 71.6191C110.391 71.6191 108.457 72.3574 106.734 73.834V70.2656C108.633 69.1406 110.824 68.5781 113.309 68.5781C117.855 68.5781 120.129 70.8164 120.129 75.293V87ZM116.191 78.1582L112.412 78.6855C111.24 78.8379 110.355 79.125 109.758 79.5469C109.172 79.957 108.879 80.6836 108.879 81.7266C108.879 82.4883 109.148 83.1152 109.688 83.6074C110.238 84.0879 110.971 84.3281 111.885 84.3281C113.127 84.3281 114.152 83.8945 114.961 83.0273C115.781 82.1484 116.191 81.0469 116.191 79.7227V78.1582ZM123.996 86.4375V82.6582C125.52 83.8184 127.201 84.3984 129.041 84.3984C131.502 84.3984 132.732 83.6719 132.732 82.2188C132.732 81.8086 132.627 81.4629 132.416 81.1816C132.205 80.8887 131.918 80.6309 131.555 80.4082C131.203 80.1855 130.781 79.9863 130.289 79.8105C129.809 79.6348 129.27 79.4355 128.672 79.2129C127.934 78.9199 127.266 78.6094 126.668 78.2812C126.082 77.9531 125.59 77.584 125.191 77.1738C124.805 76.752 124.512 76.2773 124.312 75.75C124.113 75.2227 124.014 74.6074 124.014 73.9043C124.014 73.0371 124.219 72.2754 124.629 71.6191C125.039 70.9512 125.59 70.3945 126.281 69.9492C126.973 69.4922 127.758 69.1523 128.637 68.9297C129.516 68.6953 130.424 68.5781 131.361 68.5781C133.025 68.5781 134.514 68.8301 135.826 69.334V72.9023C134.561 72.0352 133.107 71.6016 131.467 71.6016C130.951 71.6016 130.482 71.6543 130.061 71.7598C129.65 71.8652 129.299 72.0117 129.006 72.1992C128.713 72.3867 128.484 72.6152 128.32 72.8848C128.156 73.1426 128.074 73.4297 128.074 73.7461C128.074 74.1328 128.156 74.4609 128.32 74.7305C128.484 75 128.725 75.2402 129.041 75.4512C129.369 75.6504 129.756 75.8379 130.201 76.0137C130.658 76.1777 131.18 76.3594 131.766 76.5586C132.539 76.875 133.23 77.1973 133.84 77.5254C134.461 77.8535 134.988 78.2285 135.422 78.6504C135.855 79.0605 136.189 79.541 136.424 80.0918C136.658 80.6309 136.775 81.2754 136.775 82.0254C136.775 82.9395 136.564 83.7363 136.143 84.416C135.721 85.0957 135.158 85.6582 134.455 86.1035C133.752 86.5488 132.938 86.877 132.012 87.0879C131.098 87.3105 130.131 87.4219 129.111 87.4219C127.143 87.4219 125.438 87.0938 123.996 86.4375ZM155.9 79.1074H143.631C143.678 80.7715 144.188 82.0547 145.16 82.957C146.145 83.8594 147.492 84.3105 149.203 84.3105C151.125 84.3105 152.889 83.7363 154.494 82.5879V85.875C152.854 86.9062 150.686 87.4219 147.99 87.4219C145.342 87.4219 143.262 86.6074 141.75 84.9785C140.25 83.3379 139.5 81.0352 139.5 78.0703C139.5 75.2695 140.326 72.9902 141.979 71.2324C143.643 69.4629 145.705 68.5781 148.166 68.5781C150.627 68.5781 152.531 69.3691 153.879 70.9512C155.227 72.5332 155.9 74.7305 155.9 77.543V79.1074ZM151.963 76.2246C151.951 74.7598 151.605 73.623 150.926 72.8145C150.246 71.9941 149.309 71.584 148.113 71.584C146.941 71.584 145.945 72.0117 145.125 72.8672C144.316 73.7227 143.818 74.8418 143.631 76.2246H151.963ZM193.904 69L188.596 87H184.324L181.055 74.8008C180.926 74.332 180.844 73.8047 180.809 73.2188H180.738C180.715 73.6172 180.609 74.1328 180.422 74.7656L176.871 87H172.688L167.396 69H171.615L174.885 81.9727C174.99 82.3594 175.061 82.875 175.096 83.5195H175.219C175.254 83.0273 175.348 82.5 175.5 81.9375L179.139 69H182.971L186.205 82.0254C186.311 82.4355 186.387 82.9512 186.434 83.5723H186.557C186.58 83.1387 186.668 82.623 186.82 82.0254L190.02 69H193.904ZM210.762 87H206.807V84.1875H206.736C205.494 86.3438 203.672 87.4219 201.27 87.4219C199.5 87.4219 198.111 86.9414 197.104 85.9805C196.107 85.0195 195.609 83.748 195.609 82.166C195.609 78.7676 197.566 76.7871 201.48 76.2246L206.824 75.4688C206.824 72.9023 205.605 71.6191 203.168 71.6191C201.023 71.6191 199.09 72.3574 197.367 73.834V70.2656C199.266 69.1406 201.457 68.5781 203.941 68.5781C208.488 68.5781 210.762 70.8164 210.762 75.293V87ZM206.824 78.1582L203.045 78.6855C201.873 78.8379 200.988 79.125 200.391 79.5469C199.805 79.957 199.512 80.6836 199.512 81.7266C199.512 82.4883 199.781 83.1152 200.32 83.6074C200.871 84.0879 201.604 84.3281 202.518 84.3281C203.76 84.3281 204.785 83.8945 205.594 83.0273C206.414 82.1484 206.824 81.0469 206.824 79.7227V78.1582ZM217.811 65.2207C217.143 65.2207 216.568 65.0039 216.088 64.5703C215.619 64.1367 215.385 63.5859 215.385 62.918C215.385 62.25 215.619 61.6934 216.088 61.248C216.568 60.8027 217.143 60.5801 217.811 60.5801C218.502 60.5801 219.088 60.8027 219.568 61.248C220.049 61.6934 220.289 62.25 220.289 62.918C220.289 63.5508 220.049 64.0957 219.568 64.5527C219.088 64.998 218.502 65.2207 217.811 65.2207ZM219.832 87H215.754V69H219.832V87ZM234.668 86.8066C233.871 87.2051 232.822 87.4043 231.521 87.4043C228.029 87.4043 226.283 85.7285 226.283 82.377V72.1992H223.277V69H226.283V64.834L230.361 63.6738V69H234.668V72.1992H230.361V81.1992C230.361 82.2656 230.555 83.0273 230.941 83.4844C231.328 83.9414 231.973 84.1699 232.875 84.1699C233.566 84.1699 234.164 83.9707 234.668 83.5723V86.8066ZM239.871 87.3867C239.168 87.3867 238.57 87.1582 238.078 86.7012C237.586 86.2324 237.34 85.6758 237.34 85.0312C237.34 84.375 237.586 83.8125 238.078 83.3438C238.57 82.875 239.168 82.6406 239.871 82.6406C240.586 82.6406 241.189 82.875 241.682 83.3438C242.186 83.8125 242.438 84.375 242.438 85.0312C242.438 85.6758 242.186 86.2324 241.682 86.7012C241.189 87.1582 240.586 87.3867 239.871 87.3867ZM248.555 87.3867C247.852 87.3867 247.254 87.1582 246.762 86.7012C246.27 86.2324 246.023 85.6758 246.023 85.0312C246.023 84.375 246.27 83.8125 246.762 83.3438C247.254 82.875 247.852 82.6406 248.555 82.6406C249.27 82.6406 249.873 82.875 250.365 83.3438C250.869 83.8125 251.121 84.375 251.121 85.0312C251.121 85.6758 250.869 86.2324 250.365 86.7012C249.873 87.1582 249.27 87.3867 248.555 87.3867ZM257.238 87.3867C256.535 87.3867 255.938 87.1582 255.445 86.7012C254.953 86.2324 254.707 85.6758 254.707 85.0312C254.707 84.375 254.953 83.8125 255.445 83.3438C255.938 82.875 256.535 82.6406 257.238 82.6406C257.953 82.6406 258.557 82.875 259.049 83.3438C259.553 83.8125 259.805 84.375 259.805 85.0312C259.805 85.6758 259.553 86.2324 259.049 86.7012C258.557 87.1582 257.953 87.3867 257.238 87.3867Z" fill="white"/>
</g>
<defs>
<filter id="filter0_d_182_43" x="3.26953" y="12.3516" width="301.443" height="84.9277" filterUnits="userSpaceOnUse" color-interpolation-filters="sRGB">
<feFlood flood-opacity="0" result="BackgroundImageFix"/>
<feColorMatrix in="SourceAlpha" type="matrix" values="0 0 0 0 0 0 0 0 0 0 0 0 0 0 0 0 0 0 127 0" result="hardAlpha"/>
<feOffset dx="2" dy="2"/>
<feComposite in2="hardAlpha" operator="out"/>
<feColorMatrix type="matrix" values="0 0 0 0 0.0666667 0 0 0 0 0.0666667 0 0 0 0 0.0666667 0 0 0 1 0"/>
<feBlend mode="normal" in2="BackgroundImageFix" result="effect1_dropShadow_182_43"/>
<feBlend mode="normal" in="SourceGraphic" in2="effect1_dropShadow_182_43" result="shape"/>
</filter>
</defs>
</svg>
