<svg width="524" height="50" viewBox="0 0 524 50" fill="none" xmlns="http://www.w3.org/2000/svg">
<g filter="url(#filter0_d_168_40)">
<path d="M17.1465 39H3.18945V13.793H7.37305V35.4668H17.1465V39ZM28.3262 39.4219C25.5488 39.4219 23.3281 38.584 21.6641 36.9082C20.0117 35.2207 19.1855 32.9883 19.1855 30.2109C19.1855 27.1875 20.0469 24.8262 21.7695 23.127C23.5039 21.4277 25.8359 20.5781 28.7656 20.5781C31.5781 20.5781 33.7695 21.4043 35.3398 23.0566C36.9102 24.709 37.6953 27 37.6953 29.9297C37.6953 32.8008 36.8457 35.1035 35.1465 36.8379C33.459 38.5605 31.1855 39.4219 28.3262 39.4219ZM28.5195 23.8301C26.9258 23.8301 25.666 24.3867 24.7402 25.5C23.8145 26.6133 23.3516 28.1484 23.3516 30.1055C23.3516 31.9922 23.8203 33.4805 24.7578 34.5703C25.6953 35.6484 26.9492 36.1875 28.5195 36.1875C30.125 36.1875 31.3555 35.6543 32.2109 34.5879C33.0781 33.5215 33.5117 32.0039 33.5117 30.0352C33.5117 28.0547 33.0781 26.5254 32.2109 25.4473C31.3555 24.3691 30.125 23.8301 28.5195 23.8301ZM55.2559 39H51.3008V36.1875H51.2305C49.9883 38.3438 48.166 39.4219 45.7637 39.4219C43.9941 39.4219 42.6055 38.9414 41.5977 37.9805C40.6016 37.0195 40.1035 35.748 40.1035 34.166C40.1035 30.7676 42.0605 28.7871 45.9746 28.2246L51.3184 27.4688C51.3184 24.9023 50.0996 23.6191 47.6621 23.6191C45.5176 23.6191 43.584 24.3574 41.8613 25.834V22.2656C43.7598 21.1406 45.9512 20.5781 48.4355 20.5781C52.9824 20.5781 55.2559 22.8164 55.2559 27.293V39ZM51.3184 30.1582L47.5391 30.6855C46.3672 30.8379 45.4824 31.125 44.8848 31.5469C44.2988 31.957 44.0059 32.6836 44.0059 33.7266C44.0059 34.4883 44.2754 35.1152 44.8145 35.6074C45.3652 36.0879 46.0977 36.3281 47.0117 36.3281C48.2539 36.3281 49.2793 35.8945 50.0879 35.0273C50.9082 34.1484 51.3184 33.0469 51.3184 31.7227V30.1582ZM76.6133 39H72.5352V35.9414H72.4648C71.1523 38.2617 69.1309 39.4219 66.4004 39.4219C64.1855 39.4219 62.4102 38.6191 61.0742 37.0137C59.75 35.3965 59.0879 33.1992 59.0879 30.4219C59.0879 27.4453 59.8203 25.0605 61.2852 23.2676C62.7617 21.4746 64.7246 20.5781 67.1738 20.5781C69.5996 20.5781 71.3633 21.5508 72.4648 23.4961H72.5352V12.3516H76.6133V39ZM72.5879 30.7734V28.418C72.5879 27.1406 72.1719 26.0566 71.3398 25.166C70.5078 24.2754 69.4473 23.8301 68.1582 23.8301C66.6348 23.8301 65.4336 24.3984 64.5547 25.5352C63.6875 26.6719 63.2539 28.248 63.2539 30.2637C63.2539 32.0918 63.6699 33.5391 64.502 34.6055C65.3457 35.6602 66.4766 36.1875 67.8945 36.1875C69.2891 36.1875 70.4199 35.6777 71.2871 34.6582C72.1543 33.627 72.5879 32.332 72.5879 30.7734ZM83.9961 17.2207C83.3281 17.2207 82.7539 17.0039 82.2734 16.5703C81.8047 16.1367 81.5703 15.5859 81.5703 14.918C81.5703 14.25 81.8047 13.6934 82.2734 13.248C82.7539 12.8027 83.3281 12.5801 83.9961 12.5801C84.6875 12.5801 85.2734 12.8027 85.7539 13.248C86.2344 13.6934 86.4746 14.25 86.4746 14.918C86.4746 15.5508 86.2344 16.0957 85.7539 16.5527C85.2734 16.998 84.6875 17.2207 83.9961 17.2207ZM86.0176 39H81.9395V21H86.0176V39ZM107.393 39H103.314V28.8574C103.314 25.4941 102.125 23.8125 99.7461 23.8125C98.5039 23.8125 97.4785 24.2812 96.6699 25.2188C95.8613 26.1445 95.457 27.3164 95.457 28.7344V39H91.3613V21H95.457V23.9883H95.5273C96.875 21.7148 98.8203 20.5781 101.363 20.5781C103.32 20.5781 104.814 21.2168 105.846 22.4941C106.877 23.7598 107.393 25.5938 107.393 27.9961V39ZM128.768 37.5586C128.768 44.168 125.445 47.4727 118.801 47.4727C116.457 47.4727 114.412 47.0801 112.666 46.2949V42.5684C114.635 43.6934 116.504 44.2559 118.273 44.2559C122.551 44.2559 124.689 42.1523 124.689 37.9453V35.9766H124.619C123.271 38.2734 121.244 39.4219 118.537 39.4219C116.346 39.4219 114.576 38.625 113.229 37.0312C111.893 35.4258 111.225 33.2754 111.225 30.5801C111.225 27.5215 111.945 25.0898 113.387 23.2852C114.828 21.4805 116.809 20.5781 119.328 20.5781C121.707 20.5781 123.471 21.5508 124.619 23.4961H124.689V21H128.768V37.5586ZM124.725 30.7559V28.418C124.725 27.1523 124.303 26.0742 123.459 25.1836C122.627 24.2812 121.584 23.8301 120.33 23.8301C118.783 23.8301 117.57 24.4043 116.691 25.5527C115.824 26.6895 115.391 28.2832 115.391 30.334C115.391 32.1035 115.807 33.5215 116.639 34.5879C117.482 35.6426 118.596 36.1699 119.979 36.1699C121.385 36.1699 122.527 35.666 123.406 34.6582C124.285 33.6387 124.725 32.3379 124.725 30.7559ZM154.432 24.8848C153.939 24.498 153.23 24.3047 152.305 24.3047C151.098 24.3047 150.09 24.8496 149.281 25.9395C148.473 27.0293 148.068 28.5117 148.068 30.3867V39H143.99V21H148.068V24.709H148.139C148.537 23.4434 149.146 22.459 149.967 21.7559C150.799 21.041 151.725 20.6836 152.744 20.6836C153.482 20.6836 154.045 20.7949 154.432 21.0176V24.8848ZM172.238 31.1074H159.969C160.016 32.7715 160.525 34.0547 161.498 34.957C162.482 35.8594 163.83 36.3105 165.541 36.3105C167.463 36.3105 169.227 35.7363 170.832 34.5879V37.875C169.191 38.9062 167.023 39.4219 164.328 39.4219C161.68 39.4219 159.6 38.6074 158.088 36.9785C156.588 35.3379 155.838 33.0352 155.838 30.0703C155.838 27.2695 156.664 24.9902 158.316 23.2324C159.98 21.4629 162.043 20.5781 164.504 20.5781C166.965 20.5781 168.869 21.3691 170.217 22.9512C171.564 24.5332 172.238 26.7305 172.238 29.543V31.1074ZM168.301 28.2246C168.289 26.7598 167.943 25.623 167.264 24.8145C166.584 23.9941 165.646 23.584 164.451 23.584C163.279 23.584 162.283 24.0117 161.463 24.8672C160.654 25.7227 160.156 26.8418 159.969 28.2246H168.301ZM174.998 38.4375V34.6582C176.521 35.8184 178.203 36.3984 180.043 36.3984C182.504 36.3984 183.734 35.6719 183.734 34.2188C183.734 33.8086 183.629 33.4629 183.418 33.1816C183.207 32.8887 182.92 32.6309 182.557 32.4082C182.205 32.1855 181.783 31.9863 181.291 31.8105C180.811 31.6348 180.271 31.4355 179.674 31.2129C178.936 30.9199 178.268 30.6094 177.67 30.2812C177.084 29.9531 176.592 29.584 176.193 29.1738C175.807 28.752 175.514 28.2773 175.314 27.75C175.115 27.2227 175.016 26.6074 175.016 25.9043C175.016 25.0371 175.221 24.2754 175.631 23.6191C176.041 22.9512 176.592 22.3945 177.283 21.9492C177.975 21.4922 178.76 21.1523 179.639 20.9297C180.518 20.6953 181.426 20.5781 182.363 20.5781C184.027 20.5781 185.516 20.8301 186.828 21.334V24.9023C185.562 24.0352 184.109 23.6016 182.469 23.6016C181.953 23.6016 181.484 23.6543 181.062 23.7598C180.652 23.8652 180.301 24.0117 180.008 24.1992C179.715 24.3867 179.486 24.6152 179.322 24.8848C179.158 25.1426 179.076 25.4297 179.076 25.7461C179.076 26.1328 179.158 26.4609 179.322 26.7305C179.486 27 179.727 27.2402 180.043 27.4512C180.371 27.6504 180.758 27.8379 181.203 28.0137C181.66 28.1777 182.182 28.3594 182.768 28.5586C183.541 28.875 184.232 29.1973 184.842 29.5254C185.463 29.8535 185.99 30.2285 186.424 30.6504C186.857 31.0605 187.191 31.541 187.426 32.0918C187.66 32.6309 187.777 33.2754 187.777 34.0254C187.777 34.9395 187.566 35.7363 187.145 36.416C186.723 37.0957 186.16 37.6582 185.457 38.1035C184.754 38.5488 183.939 38.877 183.014 39.0879C182.1 39.3105 181.133 39.4219 180.113 39.4219C178.145 39.4219 176.439 39.0938 174.998 38.4375ZM199.643 39.4219C196.865 39.4219 194.645 38.584 192.98 36.9082C191.328 35.2207 190.502 32.9883 190.502 30.2109C190.502 27.1875 191.363 24.8262 193.086 23.127C194.82 21.4277 197.152 20.5781 200.082 20.5781C202.895 20.5781 205.086 21.4043 206.656 23.0566C208.227 24.709 209.012 27 209.012 29.9297C209.012 32.8008 208.162 35.1035 206.463 36.8379C204.775 38.5605 202.502 39.4219 199.643 39.4219ZM199.836 23.8301C198.242 23.8301 196.982 24.3867 196.057 25.5C195.131 26.6133 194.668 28.1484 194.668 30.1055C194.668 31.9922 195.137 33.4805 196.074 34.5703C197.012 35.6484 198.266 36.1875 199.836 36.1875C201.441 36.1875 202.672 35.6543 203.527 34.5879C204.395 33.5215 204.828 32.0039 204.828 30.0352C204.828 28.0547 204.395 26.5254 203.527 25.4473C202.672 24.3691 201.441 23.8301 199.836 23.8301ZM228.875 39H224.797V36.1523H224.727C223.543 38.332 221.703 39.4219 219.207 39.4219C214.953 39.4219 212.826 36.8672 212.826 31.7578V21H216.904V31.3359C216.904 34.5703 218.152 36.1875 220.648 36.1875C221.855 36.1875 222.846 35.7422 223.619 34.8516C224.404 33.9609 224.797 32.7949 224.797 31.3535V21H228.875V39ZM244.643 24.8848C244.15 24.498 243.441 24.3047 242.516 24.3047C241.309 24.3047 240.301 24.8496 239.492 25.9395C238.684 27.0293 238.279 28.5117 238.279 30.3867V39H234.201V21H238.279V24.709H238.35C238.748 23.4434 239.357 22.459 240.178 21.7559C241.01 21.041 241.936 20.6836 242.955 20.6836C243.693 20.6836 244.256 20.7949 244.643 21.0176V24.8848ZM260.094 38.1738C258.652 39.0059 256.947 39.4219 254.979 39.4219C252.307 39.4219 250.15 38.5898 248.51 36.9258C246.869 35.25 246.049 33.082 246.049 30.4219C246.049 27.457 246.928 25.0781 248.686 23.2852C250.455 21.4805 252.816 20.5781 255.77 20.5781C257.41 20.5781 258.857 20.8652 260.111 21.4395V25.2363C258.857 24.2988 257.521 23.8301 256.104 23.8301C254.381 23.8301 252.969 24.416 251.867 25.5879C250.766 26.748 250.215 28.2715 250.215 30.1582C250.215 32.0215 250.73 33.4922 251.762 34.5703C252.805 35.6484 254.199 36.1875 255.945 36.1875C257.41 36.1875 258.793 35.666 260.094 34.623V38.1738ZM279.395 31.1074H267.125C267.172 32.7715 267.682 34.0547 268.654 34.957C269.639 35.8594 270.986 36.3105 272.697 36.3105C274.619 36.3105 276.383 35.7363 277.988 34.5879V37.875C276.348 38.9062 274.18 39.4219 271.484 39.4219C268.836 39.4219 266.756 38.6074 265.244 36.9785C263.744 35.3379 262.994 33.0352 262.994 30.0703C262.994 27.2695 263.82 24.9902 265.473 23.2324C267.137 21.4629 269.199 20.5781 271.66 20.5781C274.121 20.5781 276.025 21.3691 277.373 22.9512C278.721 24.5332 279.395 26.7305 279.395 29.543V31.1074ZM275.457 28.2246C275.445 26.7598 275.1 25.623 274.42 24.8145C273.74 23.9941 272.803 23.584 271.607 23.584C270.436 23.584 269.439 24.0117 268.619 24.8672C267.811 25.7227 267.312 26.8418 267.125 28.2246H275.457ZM282.154 38.4375V34.6582C283.678 35.8184 285.359 36.3984 287.199 36.3984C289.66 36.3984 290.891 35.6719 290.891 34.2188C290.891 33.8086 290.785 33.4629 290.574 33.1816C290.363 32.8887 290.076 32.6309 289.713 32.4082C289.361 32.1855 288.939 31.9863 288.447 31.8105C287.967 31.6348 287.428 31.4355 286.83 31.2129C286.092 30.9199 285.424 30.6094 284.826 30.2812C284.24 29.9531 283.748 29.584 283.35 29.1738C282.963 28.752 282.67 28.2773 282.471 27.75C282.271 27.2227 282.172 26.6074 282.172 25.9043C282.172 25.0371 282.377 24.2754 282.787 23.6191C283.197 22.9512 283.748 22.3945 284.439 21.9492C285.131 21.4922 285.916 21.1523 286.795 20.9297C287.674 20.6953 288.582 20.5781 289.52 20.5781C291.184 20.5781 292.672 20.8301 293.984 21.334V24.9023C292.719 24.0352 291.266 23.6016 289.625 23.6016C289.109 23.6016 288.641 23.6543 288.219 23.7598C287.809 23.8652 287.457 24.0117 287.164 24.1992C286.871 24.3867 286.643 24.6152 286.479 24.8848C286.314 25.1426 286.232 25.4297 286.232 25.7461C286.232 26.1328 286.314 26.4609 286.479 26.7305C286.643 27 286.883 27.2402 287.199 27.4512C287.527 27.6504 287.914 27.8379 288.359 28.0137C288.816 28.1777 289.338 28.3594 289.924 28.5586C290.697 28.875 291.389 29.1973 291.998 29.5254C292.619 29.8535 293.146 30.2285 293.58 30.6504C294.014 31.0605 294.348 31.541 294.582 32.0918C294.816 32.6309 294.934 33.2754 294.934 34.0254C294.934 34.9395 294.723 35.7363 294.301 36.416C293.879 37.0957 293.316 37.6582 292.613 38.1035C291.91 38.5488 291.096 38.877 290.17 39.0879C289.256 39.3105 288.289 39.4219 287.27 39.4219C285.301 39.4219 283.596 39.0938 282.154 38.4375ZM302.633 34.7988L299.908 43.5703H296.85L298.783 34.7988H302.633ZM321.564 36.3457H321.494V47.2793H317.416V21H321.494V24.1641H321.564C322.959 21.7734 324.998 20.5781 327.682 20.5781C329.967 20.5781 331.748 21.3809 333.025 22.9863C334.303 24.5918 334.941 26.748 334.941 29.4551C334.941 32.4551 334.221 34.8574 332.779 36.6621C331.338 38.4668 329.369 39.3691 326.873 39.3691C324.576 39.3691 322.807 38.3613 321.564 36.3457ZM321.459 29.2441V31.4766C321.459 32.7891 321.875 33.9023 322.707 34.8164C323.551 35.7305 324.617 36.1875 325.906 36.1875C327.418 36.1875 328.602 35.6016 329.457 34.4297C330.324 33.2461 330.758 31.5996 330.758 29.4902C330.758 27.7207 330.354 26.3379 329.545 25.3418C328.748 24.334 327.664 23.8301 326.293 23.8301C324.84 23.8301 323.668 24.3457 322.777 25.377C321.898 26.4082 321.459 27.6973 321.459 29.2441ZM343.203 39H339.107V12.3516H343.203V39ZM363.77 31.1074H351.5C351.547 32.7715 352.057 34.0547 353.029 34.957C354.014 35.8594 355.361 36.3105 357.072 36.3105C358.994 36.3105 360.758 35.7363 362.363 34.5879V37.875C360.723 38.9062 358.555 39.4219 355.859 39.4219C353.211 39.4219 351.131 38.6074 349.619 36.9785C348.119 35.3379 347.369 33.0352 347.369 30.0703C347.369 27.2695 348.195 24.9902 349.848 23.2324C351.512 21.4629 353.574 20.5781 356.035 20.5781C358.496 20.5781 360.4 21.3691 361.748 22.9512C363.096 24.5332 363.77 26.7305 363.77 29.543V31.1074ZM359.832 28.2246C359.82 26.7598 359.475 25.623 358.795 24.8145C358.115 23.9941 357.178 23.584 355.982 23.584C354.811 23.584 353.814 24.0117 352.994 24.8672C352.186 25.7227 351.688 26.8418 351.5 28.2246H359.832ZM381.471 39H377.516V36.1875H377.445C376.203 38.3438 374.381 39.4219 371.979 39.4219C370.209 39.4219 368.82 38.9414 367.812 37.9805C366.816 37.0195 366.318 35.748 366.318 34.166C366.318 30.7676 368.275 28.7871 372.189 28.2246L377.533 27.4688C377.533 24.9023 376.314 23.6191 373.877 23.6191C371.732 23.6191 369.799 24.3574 368.076 25.834V22.2656C369.975 21.1406 372.166 20.5781 374.65 20.5781C379.197 20.5781 381.471 22.8164 381.471 27.293V39ZM377.533 30.1582L373.754 30.6855C372.582 30.8379 371.697 31.125 371.1 31.5469C370.514 31.957 370.221 32.6836 370.221 33.7266C370.221 34.4883 370.49 35.1152 371.029 35.6074C371.58 36.0879 372.312 36.3281 373.227 36.3281C374.469 36.3281 375.494 35.8945 376.303 35.0273C377.123 34.1484 377.533 33.0469 377.533 31.7227V30.1582ZM385.338 38.4375V34.6582C386.861 35.8184 388.543 36.3984 390.383 36.3984C392.844 36.3984 394.074 35.6719 394.074 34.2188C394.074 33.8086 393.969 33.4629 393.758 33.1816C393.547 32.8887 393.26 32.6309 392.896 32.4082C392.545 32.1855 392.123 31.9863 391.631 31.8105C391.15 31.6348 390.611 31.4355 390.014 31.2129C389.275 30.9199 388.607 30.6094 388.01 30.2812C387.424 29.9531 386.932 29.584 386.533 29.1738C386.146 28.752 385.854 28.2773 385.654 27.75C385.455 27.2227 385.355 26.6074 385.355 25.9043C385.355 25.0371 385.561 24.2754 385.971 23.6191C386.381 22.9512 386.932 22.3945 387.623 21.9492C388.314 21.4922 389.1 21.1523 389.979 20.9297C390.857 20.6953 391.766 20.5781 392.703 20.5781C394.367 20.5781 395.855 20.8301 397.168 21.334V24.9023C395.902 24.0352 394.449 23.6016 392.809 23.6016C392.293 23.6016 391.824 23.6543 391.402 23.7598C390.992 23.8652 390.641 24.0117 390.348 24.1992C390.055 24.3867 389.826 24.6152 389.662 24.8848C389.498 25.1426 389.416 25.4297 389.416 25.7461C389.416 26.1328 389.498 26.4609 389.662 26.7305C389.826 27 390.066 27.2402 390.383 27.4512C390.711 27.6504 391.098 27.8379 391.543 28.0137C392 28.1777 392.521 28.3594 393.107 28.5586C393.881 28.875 394.572 29.1973 395.182 29.5254C395.803 29.8535 396.33 30.2285 396.764 30.6504C397.197 31.0605 397.531 31.541 397.766 32.0918C398 32.6309 398.117 33.2754 398.117 34.0254C398.117 34.9395 397.906 35.7363 397.484 36.416C397.062 37.0957 396.5 37.6582 395.797 38.1035C395.094 38.5488 394.279 38.877 393.354 39.0879C392.439 39.3105 391.473 39.4219 390.453 39.4219C388.484 39.4219 386.779 39.0938 385.338 38.4375ZM417.242 31.1074H404.973C405.02 32.7715 405.529 34.0547 406.502 34.957C407.486 35.8594 408.834 36.3105 410.545 36.3105C412.467 36.3105 414.23 35.7363 415.836 34.5879V37.875C414.195 38.9062 412.027 39.4219 409.332 39.4219C406.684 39.4219 404.604 38.6074 403.092 36.9785C401.592 35.3379 400.842 33.0352 400.842 30.0703C400.842 27.2695 401.668 24.9902 403.32 23.2324C404.984 21.4629 407.047 20.5781 409.508 20.5781C411.969 20.5781 413.873 21.3691 415.221 22.9512C416.568 24.5332 417.242 26.7305 417.242 29.543V31.1074ZM413.305 28.2246C413.293 26.7598 412.947 25.623 412.268 24.8145C411.588 23.9941 410.65 23.584 409.455 23.584C408.283 23.584 407.287 24.0117 406.467 24.8672C405.658 25.7227 405.16 26.8418 404.973 28.2246H413.305ZM455.246 21L449.938 39H445.666L442.396 26.8008C442.268 26.332 442.186 25.8047 442.15 25.2188H442.08C442.057 25.6172 441.951 26.1328 441.764 26.7656L438.213 39H434.029L428.738 21H432.957L436.227 33.9727C436.332 34.3594 436.402 34.875 436.438 35.5195H436.561C436.596 35.0273 436.689 34.5 436.842 33.9375L440.48 21H444.312L447.547 34.0254C447.652 34.4355 447.729 34.9512 447.775 35.5723H447.898C447.922 35.1387 448.01 34.623 448.162 34.0254L451.361 21H455.246ZM472.104 39H468.148V36.1875H468.078C466.836 38.3438 465.014 39.4219 462.611 39.4219C460.842 39.4219 459.453 38.9414 458.445 37.9805C457.449 37.0195 456.951 35.748 456.951 34.166C456.951 30.7676 458.908 28.7871 462.822 28.2246L468.166 27.4688C468.166 24.9023 466.947 23.6191 464.51 23.6191C462.365 23.6191 460.432 24.3574 458.709 25.834V22.2656C460.607 21.1406 462.799 20.5781 465.283 20.5781C469.83 20.5781 472.104 22.8164 472.104 27.293V39ZM468.166 30.1582L464.387 30.6855C463.215 30.8379 462.33 31.125 461.732 31.5469C461.146 31.957 460.854 32.6836 460.854 33.7266C460.854 34.4883 461.123 35.1152 461.662 35.6074C462.213 36.0879 462.945 36.3281 463.859 36.3281C465.102 36.3281 466.127 35.8945 466.936 35.0273C467.756 34.1484 468.166 33.0469 468.166 31.7227V30.1582ZM479.152 17.2207C478.484 17.2207 477.91 17.0039 477.43 16.5703C476.961 16.1367 476.727 15.5859 476.727 14.918C476.727 14.25 476.961 13.6934 477.43 13.248C477.91 12.8027 478.484 12.5801 479.152 12.5801C479.844 12.5801 480.43 12.8027 480.91 13.248C481.391 13.6934 481.631 14.25 481.631 14.918C481.631 15.5508 481.391 16.0957 480.91 16.5527C480.43 16.998 479.844 17.2207 479.152 17.2207ZM481.174 39H477.096V21H481.174V39ZM496.01 38.8066C495.213 39.2051 494.164 39.4043 492.863 39.4043C489.371 39.4043 487.625 37.7285 487.625 34.377V24.1992H484.619V21H487.625V16.834L491.703 15.6738V21H496.01V24.1992H491.703V33.1992C491.703 34.2656 491.896 35.0273 492.283 35.4844C492.67 35.9414 493.314 36.1699 494.217 36.1699C494.908 36.1699 495.506 35.9707 496.01 35.5723V38.8066ZM501.213 39.3867C500.51 39.3867 499.912 39.1582 499.42 38.7012C498.928 38.2324 498.682 37.6758 498.682 37.0312C498.682 36.375 498.928 35.8125 499.42 35.3438C499.912 34.875 500.51 34.6406 501.213 34.6406C501.928 34.6406 502.531 34.875 503.023 35.3438C503.527 35.8125 503.779 36.375 503.779 37.0312C503.779 37.6758 503.527 38.2324 503.023 38.7012C502.531 39.1582 501.928 39.3867 501.213 39.3867ZM509.896 39.3867C509.193 39.3867 508.596 39.1582 508.104 38.7012C507.611 38.2324 507.365 37.6758 507.365 37.0312C507.365 36.375 507.611 35.8125 508.104 35.3438C508.596 34.875 509.193 34.6406 509.896 34.6406C510.611 34.6406 511.215 34.875 511.707 35.3438C512.211 35.8125 512.463 36.375 512.463 37.0312C512.463 37.6758 512.211 38.2324 511.707 38.7012C511.215 39.1582 510.611 39.3867 509.896 39.3867ZM518.58 39.3867C517.877 39.3867 517.279 39.1582 516.787 38.7012C516.295 38.2324 516.049 37.6758 516.049 37.0312C516.049 36.375 516.295 35.8125 516.787 35.3438C517.279 34.875 517.877 34.6406 518.58 34.6406C519.295 34.6406 519.898 34.875 520.391 35.3438C520.895 35.8125 521.146 36.375 521.146 37.0312C521.146 37.6758 520.895 38.2324 520.391 38.7012C519.898 39.1582 519.295 39.3867 518.58 39.3867Z" fill="white"/>
</g>
<defs>
<filter id="filter0_d_168_40" x="3.18945" y="12.3516" width="519.957" height="37.1211" filterUnits="userSpaceOnUse" color-interpolation-filters="sRGB">
<feFlood flood-opacity="0" result="BackgroundImageFix"/>
<feColorMatrix in="SourceAlpha" type="matrix" values="0 0 0 0 0 0 0 0 0 0 0 0 0 0 0 0 0 0 127 0" result="hardAlpha"/>
<feOffset dx="2" dy="2"/>
<feComposite in2="hardAlpha" operator="out"/>
<feColorMatrix type="matrix" values="0 0 0 0 0.0666667 0 0 0 0 0.0666667 0 0 0 0 0.0666667 0 0 0 1 0"/>
<feBlend mode="normal" in2="BackgroundImageFix" result="effect1_dropShadow_168_40"/>
<feBlend mode="normal" in="SourceGraphic" in2="effect1_dropShadow_168_40" result="shape"/>
</filter>
</defs>
</svg>
