<svg width="500" height="160" viewBox="0 0 500 160" fill="none" xmlns="http://www.w3.org/2000/svg">
<path d="M24.6134 0H41.0224V72L36.5099 77.8667H33.2281V82.1333H36.5099L41.0224 88V160H24.6134V88H16.4089V160H0V0H16.4089V72H24.6134V0Z" fill="#FF6600"/>
<path d="M49.2749 160V0H65.6838V160H49.2749Z" fill="#FF6600"/>
<path d="M112.884 0H129.293L139.548 13.3333V160H123.139V18.6667H114.935V160H98.5258V18.6667H90.3213V160H73.9123V13.3333L84.1679 0H100.577L105.089 5.86666V10.1333H108.371V5.86666L112.884 0Z" fill="#FF6600"/>
<path d="M147.705 160V0H164.113V160H147.705Z" fill="#FF6600"/>
<path d="M182.598 0H203.109L213.364 13.3333V160H196.955V88H188.751V160H172.342V13.3333L182.598 0ZM188.751 18.6667V72H196.955V18.6667H188.751Z" fill="white"/>
<path d="M246.23 0H262.639V160H231.872L221.617 146.667V0H238.026V141.333H246.23V0Z" fill="white"/>
<path d="M281.147 0H301.659L311.914 13.3333V160H295.505V88H287.301V160H270.892V13.3333L281.147 0ZM287.301 18.6667V72H295.505V18.6667H287.301Z" fill="white"/>
<path d="M318.116 0H354.215V18.6667H344.37V160H327.961V18.6667H318.116V0Z" fill="white"/>
<path d="M370.683 0H391.195L401.45 13.3333V160H385.041V88H376.837V160H360.428V13.3333L370.683 0ZM376.837 18.6667V72H385.041V18.6667H376.837Z" fill="white"/>
<path d="M409.703 0H440.47L450.725 13.3333V72L446.213 77.8667H442.931V82.1333H446.213L450.725 88V160H434.316V88H426.112V160H409.703V0ZM426.112 18.6667V72H434.316V18.6667H426.112Z" fill="white"/>
<path d="M469.233 0H489.744L500 13.3333V56H483.591V18.6667H475.387V72H493.847L500 80V146.667L489.744 160H469.233L458.978 146.667V104H475.387V141.333H483.591V88H465.131L458.978 80V13.3333L469.233 0Z" fill="white"/>
</svg>
