<svg width="160" height="160" viewBox="0 0 160 160" fill="none" xmlns="http://www.w3.org/2000/svg">
<path fill-rule="evenodd" clip-rule="evenodd" d="M79.3581 49.0202C82.0435 48.746 83.594 51.3206 83.1657 53.3923C82.606 56.0999 81.4724 62.1356 81.4724 66.2223C81.4724 66.4627 81.4756 66.7098 81.4831 66.9626C83.3968 64.8297 86.1681 62.974 90.0651 61.7057C93.7119 60.5191 97.9752 60.8887 101.633 62.2048C105.273 63.5142 108.788 65.9367 110.574 69.3766L110.689 69.6159C111.779 72.0889 109.815 74.3608 107.716 74.5934C104.972 74.8969 98.8893 75.6822 95.0085 76.945C94.8554 76.9948 94.7002 77.0493 94.5427 77.1042C97.0766 78.2867 99.6067 80.3243 101.939 83.5397C104.193 86.6469 105.16 90.8221 105.041 94.7136C104.922 98.5852 103.707 102.681 100.993 105.446L100.801 105.63C98.7899 107.432 96.0254 106.263 95.1559 104.335C94.0199 101.815 91.395 96.2641 88.9968 92.9577C88.8681 92.7804 88.7313 92.6017 88.5915 92.4196C88.3076 95.2921 87.1581 98.4507 84.7282 101.8C82.4743 104.907 78.8096 107.119 75.0778 108.208C71.3646 109.291 67.0985 109.4 63.6345 107.669L63.4011 107.544C61.0678 106.184 61.3252 103.189 62.8874 101.765C64.9291 99.9044 69.3874 95.6886 71.7858 92.3825C71.9188 92.1992 72.0512 92.0074 72.1852 91.8112C69.398 92.3954 66.0882 92.2606 62.2194 91.0016C58.5726 89.8147 55.3394 87.0063 53.152 83.7878C50.9759 80.5856 49.554 76.5561 50.1276 72.7214L50.1755 72.4606C50.745 69.8179 53.6679 69.1371 55.5026 70.1852C57.9004 71.555 63.2812 74.4993 67.1618 75.7624C67.3606 75.8271 67.5664 75.8887 67.7761 75.9509C66.3652 73.4785 65.4744 70.2882 65.4743 66.2223C65.4744 62.382 67.1422 58.4352 69.5222 55.3571C71.8903 52.2947 75.277 49.695 79.0954 49.0563L79.3581 49.0202ZM80.8317 75.277C77.7945 75.2772 75.3319 77.7398 75.3317 80.777C75.3317 83.8145 77.7943 86.2768 80.8317 86.277C83.8693 86.277 86.3317 83.8146 86.3317 80.777C86.3315 77.7397 83.8692 75.277 80.8317 75.277Z" fill="#FF6600"/>
</svg>
