<svg width="500" height="160" viewBox="0 0 500 160" fill="none" xmlns="http://www.w3.org/2000/svg">
<path d="M46.4924 0H66.0682L78.303 13.3333V160H58.7273V18.6667H48.9394V160H29.3636V18.6667H19.5758V160H0V13.3333L12.2348 0H31.8106L37.1939 5.86666V10.1333H41.1091V5.86666L46.4924 0Z" fill="#FF6600"/>
<path d="M88.0336 106.667V88H105.162V106.667H88.0336ZM88.0336 72V53.3333H105.162V72H88.0336Z" fill="white"/>
<path d="M114.988 0H151.693L163.928 13.3333V72L149.246 88H134.564V160H114.988V0ZM134.564 18.6667V72H144.352V18.6667H134.564Z" fill="white"/>
<path d="M173.773 0H210.478L222.712 13.3333V72L217.329 77.8667H213.414V82.1333H217.329L222.712 88V160H203.137V88H193.349V160H173.773V0ZM193.349 18.6667V72H203.137V18.6667H193.349Z" fill="white"/>
<path d="M244.793 0H269.262L281.497 13.3333V146.667L269.262 160H244.793L232.558 146.667V13.3333L244.793 0ZM252.133 18.6667V141.333H261.921V18.6667H252.133Z" fill="white"/>
<path d="M320.706 0H340.282V146.667L328.047 160H303.577L291.342 146.667V104H310.918V141.333H320.706V0Z" fill="white"/>
<path d="M350.127 0H393.194V18.6667H369.703V72H383.406V88H369.703V141.333H393.194V160H350.127V0Z" fill="white"/>
<path d="M412.831 0H437.3L449.535 13.3333V72H429.959V18.6667H420.171V141.333H429.959V88H449.535V146.667L437.3 160H412.831L400.596 146.667V13.3333L412.831 0Z" fill="white"/>
<path d="M456.933 0H500V18.6667H488.255V160H468.679V18.6667H456.933V0Z" fill="white"/>
</svg>
