<svg width="160" height="160" viewBox="0 0 160 160" fill="none" xmlns="http://www.w3.org/2000/svg">
<path fill-rule="evenodd" clip-rule="evenodd" d="M80 49C93.8071 49 105 60.388 105 74.4359C105 83.784 100.043 91.9539 92.6584 96.3744C91.6283 96.991 90.9375 98.0858 90.9375 99.3017V107.821C90.9375 109.576 89.5384 111 87.8125 111H72.1875C70.4616 111 69.0625 109.576 69.0625 107.821V99.3017C69.0625 98.0858 68.3717 96.991 67.3416 96.3744C59.9566 91.9539 55 83.784 55 74.4359C55 60.388 66.1929 49 80 49ZM80 57.9026C71.0254 57.9026 63.75 65.3048 63.75 74.4359C63.75 83.567 71.0254 90.9692 80 90.9692C88.9746 90.9692 96.25 83.567 96.25 74.4359C96.25 65.3048 88.9746 57.9026 80 57.9026Z" fill="#FF6600"/>
</svg>
