<svg width="90" height="90" viewBox="0 0 90 90" fill="none" xmlns="http://www.w3.org/2000/svg">
<path d="M20 40H12.5V37.5H20V40Z" fill="white"/>
<path d="M32.5 40H25V37.5H32.5V40Z" fill="white"/>
<path d="M12.5 37.5H10V35H12.5V37.5Z" fill="white"/>
<path d="M25 37.5H20V35H25L25 37.5Z" fill="white"/>
<path d="M35 37.5H32.5V35H35V37.5Z" fill="white"/>
<path d="M12.5 30H10V35H7.5V27.5H12.5L12.5 30Z" fill="white"/>
<path d="M37.5 35H35V30H32.5V27.5L37.5 27.5V35Z" fill="white"/>
<path d="M15 15H10V17.5H7.5L7.5 27.5H5V15H7.5V12.5H15V15Z" fill="white"/>
<path d="M37.5 15H40V27.5H37.5V17.5H35V15H30V12.5H37.5V15Z" fill="white"/>
<path d="M17.5 12.5H15V7.5L17.5 7.5V12.5Z" fill="white"/>
<path d="M30 12.5L27.5 12.5V7.5H30V12.5Z" fill="white"/>
<path d="M27.5 7.5L17.5 7.5V5H27.5V7.5Z" fill="white"/>
<path d="M25 35H20V37.5H12.5V35H10V30H12.5V27.5H7.5V17.5H10V15H15V12.5H17.5V7.5H27.5V12.5H30V15L35 15V17.5H37.5V27.5H32.5V30H35V35H32.5V37.5H25V35Z" fill="white"/>
<path d="M65 85H57.5V82.5H65V85Z" fill="white"/>
<path d="M77.5 85H70V82.5H77.5V85Z" fill="white"/>
<path d="M57.5 82.5H55V80H57.5V82.5Z" fill="white"/>
<path d="M70 82.5H65V80H70V82.5Z" fill="white"/>
<path d="M80 82.5H77.5V80H80V82.5Z" fill="white"/>
<path d="M57.5 75H55V80H52.5V72.5H57.5V75Z" fill="white"/>
<path d="M82.5 80H80V75H77.5V72.5H82.5V80Z" fill="white"/>
<path d="M60 60H55V62.5H52.5V72.5H50V60H52.5V57.5H60V60Z" fill="white"/>
<path d="M82.5 60H85V72.5H82.5V62.5H80V60H75V57.5H82.5V60Z" fill="white"/>
<path d="M62.5 57.5H60V52.5H62.5V57.5Z" fill="white"/>
<path d="M75 57.5H72.5V52.5H75V57.5Z" fill="white"/>
<path d="M72.5 52.5H62.5V50H72.5V52.5Z" fill="white"/>
<path d="M70 80H65V82.5H57.5V80H55V75H57.5V72.5H52.5V62.5H55V60H60V57.5H62.5V52.5H72.5V57.5H75V60H80V62.5H82.5V72.5H77.5V75H80V80H77.5V82.5H70V80Z" fill="white"/>
</svg>
