<svg width="500" height="160" viewBox="0 0 500 160" fill="none" xmlns="http://www.w3.org/2000/svg">
<path d="M0 0H27.5232V141.333H60.551V160H0V0Z" fill="white"/>
<path d="M88.1602 0H122.564L139.766 13.3333V146.667L122.564 160H88.1602L70.9582 146.667V13.3333L88.1602 0ZM98.4814 18.6667V141.333H112.243V18.6667H98.4814Z" fill="white"/>
<path d="M153.608 0H181.132V141.333H214.159V160H153.608V0Z" fill="white"/>
<path d="M224.567 160V0H252.09V160H224.567Z" fill="white"/>
<path d="M265.892 0H317.498L334.7 13.3333V72L327.131 77.8667H321.626V82.1333H327.131L334.7 88V146.667L317.498 160H265.892V0ZM293.415 18.6667V72H307.176V18.6667H293.415ZM293.415 88V141.333H307.176V88H293.415Z" fill="white"/>
<path d="M365.744 0H400.148L417.35 13.3333V160H389.827V88H376.065V160H348.542V13.3333L365.744 0ZM376.065 18.6667V72H389.827V18.6667H376.065Z" fill="white"/>
<path d="M431.192 0H482.798L500 13.3333V72L492.431 77.8667H486.927V82.1333H492.431L500 88V160H472.477V88H458.715V160H431.192V0ZM458.715 18.6667V72H472.477V18.6667H458.715Z" fill="white"/>
</svg>
